<svg xmlns="http://www.w3.org/2000/svg" viewBox="0 0 512 512">
  <rect width="512" height="512" fill="#0a0a0f"/>
  <rect x="40" y="40" width="432" height="432" fill="none" stroke="#00ffb4" stroke-width="4" opacity="0.4"/>
  <!-- T piece -->
  <rect x="176" y="96" width="64" height="64" fill="#00ffb4" rx="4"/>
  <rect x="112" y="160" width="64" height="64" fill="#00ffb4" rx="4"/>
  <rect x="176" y="160" width="64" height="64" fill="#00ffb4" rx="4"/>
  <rect x="240" y="160" width="64" height="64" fill="#00ffb4" rx="4"/>
  <!-- Bottom blocks -->
  <rect x="112" y="288" width="64" height="64" fill="#ff0078" rx="4" opacity="0.8"/>
  <rect x="240" y="288" width="64" height="64" fill="#0055ff" rx="4" opacity="0.8"/>
  <rect x="336" y="288" width="64" height="64" fill="#ffee00" rx="4" opacity="0.8"/>
  <rect x="112" y="352" width="64" height="64" fill="#cc00ff" rx="4" opacity="0.8"/>
  <rect x="176" y="352" width="64" height="64" fill="#ff6600" rx="4" opacity="0.8"/>
  <rect x="240" y="352" width="64" height="64" fill="#00ff88" rx="4" opacity="0.8"/>
  <rect x="304" y="352" width="64" height="64" fill="#ff0078" rx="4" opacity="0.8"/>
  <rect x="368" y="352" width="64" height="64" fill="#0055ff" rx="4" opacity="0.8"/>
  <!-- Glow overlay -->
  <rect x="112" y="288" width="320" height="128" fill="none" stroke="#00ffb4" stroke-width="1" opacity="0.2"/>
</svg>
